<svg xmlns="http://www.w3.org/2000/svg" viewBox="0 0 1440 320"><path fill="#0099ff" fill-opacity="1" d="M0,160L26.7,149.3C53.3,139,107,117,160,144C213.3,171,267,245,320,250.7C373.3,256,427,192,480,170.7C533.3,149,587,171,640,202.7C693.3,235,747,277,800,245.3C853.3,213,907,107,960,64C1013.3,21,1067,43,1120,80C1173.3,117,1227,171,1280,170.7C1333.3,171,1387,117,1413,90.7L1440,64L1440,0L1413.3,0C1386.7,0,1333,0,1280,0C1226.7,0,1173,0,1120,0C1066.7,0,1013,0,960,0C906.7,0,853,0,800,0C746.7,0,693,0,640,0C586.7,0,533,0,480,0C426.7,0,373,0,320,0C266.7,0,213,0,160,0C106.7,0,53,0,27,0L0,0Z"></path></svg>